<?xml version="1.0" encoding="UTF-8" standalone="no"?>
<!DOCTYPE svg PUBLIC "-//W3C//DTD SVG 1.1//EN" "http://www.w3.org/Graphics/SVG/1.1/DTD/svg11.dtd">
<svg width="512px" height="512px" version="1.1" xmlns="http://www.w3.org/2000/svg" xmlns:xlink="http://www.w3.org/1999/xlink" xml:space="preserve" xmlns:serif="http://www.serif.com/" style="fill-rule:evenodd;clip-rule:evenodd;stroke-linejoin:round;stroke-miterlimit:2;">
    <g id="V_Bottom" transform="matrix(1.87289,0,0,1.11233,-284.183,-116.775)">
        <path d="M283.682,421.257C286.503,417.769 290.342,417.769 293.163,421.257C297.047,426.059 302.823,433.2 308.573,440.309C311.364,443.76 312.522,449.839 311.443,455.378C310.365,460.918 307.295,464.664 303.833,464.664C294.048,464.664 282.798,464.664 273.013,464.664C269.55,464.664 266.48,460.918 265.402,455.378C264.324,449.839 265.482,443.76 268.272,440.309C274.023,433.2 279.798,426.059 283.682,421.257Z" style="fill:rgb(126,202,156);"/>
    </g>
    <g id="V_Left" transform="matrix(0.334183,0.550453,-1.32597,1.00077,234.616,81.7138)">
        <path d="M313.469,75.834C325.441,75.834 334.551,79.365 334.551,84.006C334.551,88.84 334.551,95 334.551,100.124C334.551,102.681 331.744,105.227 326.826,107.134C321.908,109.04 315.338,110.128 308.742,110.128L45.074,110.128C33.09,110.128 23.97,106.593 23.97,101.947C23.97,97.117 23.97,90.965 23.97,85.846C23.97,83.287 26.778,80.738 31.7,78.831C36.622,76.923 43.197,75.834 49.798,75.834L313.469,75.834Z" style="fill:rgb(126,202,156);"/>
    </g>
    <g id="V_Left1" serif:id="V_Left" transform="matrix(-0.334183,0.550453,1.32597,1.00077,277.384,81.7138)">
        <path d="M313.469,75.834C325.441,75.834 334.551,79.365 334.551,84.006C334.551,88.84 334.551,95 334.551,100.124C334.551,102.681 331.744,105.227 326.826,107.134C321.908,109.04 315.338,110.128 308.742,110.128L45.074,110.128C33.09,110.128 23.97,106.593 23.97,101.947C23.97,97.117 23.97,90.965 23.97,85.846C23.97,83.287 26.778,80.738 31.7,78.831C36.622,76.923 43.197,75.834 49.798,75.834L313.469,75.834Z" style="fill:rgb(126,202,156);"/>
    </g>
    <g id="V_Top" transform="matrix(1.09472,-8.84709e-17,7.45674e-16,1.65826,59.7597,-13.8362)">
        <path d="M320.831,75.834C328.408,75.834 334.551,79.889 334.551,84.891C334.551,89.888 334.551,96.073 334.551,101.069C334.551,106.072 328.407,110.128 320.829,110.128C269.49,110.128 89.064,110.128 37.705,110.128C30.119,110.128 23.97,106.069 23.97,101.061C23.97,96.069 23.97,89.892 23.97,84.9C23.97,82.495 25.417,80.189 27.992,78.489C30.567,76.789 34.06,75.834 37.702,75.834L320.831,75.834Z" style="fill:rgb(126,202,156);"/>
    </g>
</svg>
