<svg width="60" height="50" viewBox="0 0 60 50" fill="none" xmlns="http://www.w3.org/2000/svg">
<g clip-path="url(#clip0_3_6)">
<path fill-rule="evenodd" clip-rule="evenodd" d="M28.3628 41.6225C29.2928 40.9493 30.5585 40.9493 31.4886 41.6225C32.7691 42.5492 34.6734 43.9275 36.5691 45.2995C37.4893 45.9655 37.8711 47.1388 37.5153 48.2078C37.1599 49.277 36.1478 50 35.0064 50C31.7804 50 28.0713 50 24.8453 50C23.7036 50 22.6914 49.277 22.336 48.2078C21.9806 47.1388 22.3624 45.9655 23.2822 45.2995C25.1783 43.9275 27.0823 42.5492 28.3628 41.6225Z" fill="#7ECA9C"/>
<path fill-rule="evenodd" clip-rule="evenodd" d="M26.8991 37.8913C27.6045 39.0357 27.3201 40.517 26.2409 41.3193C25.1167 42.155 23.6842 43.2199 22.4926 44.1057C21.8979 44.5478 21.1405 44.7196 20.4072 44.5791C19.6742 44.4385 19.034 43.9985 18.6454 43.368L3.10939 18.163C2.40327 17.0174 2.68797 15.5345 3.76841 14.7313C4.89164 13.8963 6.32231 12.8328 7.51274 11.9478C8.10785 11.5055 8.86608 11.3332 9.59957 11.4741C10.3333 11.6147 10.974 12.055 11.3629 12.686L26.8991 37.8913Z" fill="#7ECA9C"/>
<path fill-rule="evenodd" clip-rule="evenodd" d="M32.9522 37.8913C32.2468 39.0357 32.5312 40.517 33.6105 41.3193C34.7346 42.155 36.1671 43.2199 37.3587 44.1057C37.9534 44.5478 38.7109 44.7196 39.4441 44.5791C40.1771 44.4385 40.8173 43.9985 41.2059 43.368L56.7419 18.163C57.4481 17.0174 57.1634 15.5345 56.0829 14.7313C54.9597 13.8963 53.529 12.8328 52.3386 11.9478C51.7435 11.5055 50.9852 11.3332 50.2517 11.4741C49.518 11.6147 48.8773 12.055 48.4884 12.686L32.9522 37.8913Z" fill="#7ECA9C"/>
<path fill-rule="evenodd" clip-rule="evenodd" d="M57.2073 0C58.6674 0 59.8512 1.16672 59.8512 2.60592C59.8512 4.04367 59.8512 5.82325 59.8512 7.26072C59.8512 8.7002 58.6672 9.86721 57.2069 9.86721C47.3135 9.86721 12.5441 9.86721 2.64684 9.86721C1.18496 9.86721 0 8.69934 0 7.25841C0 5.8221 0 4.04483 0 2.60851C0 1.91653 0.278848 1.25304 0.775069 0.763907C1.27129 0.274776 1.94442 0 2.64626 0L57.2073 0Z" fill="#7ECA9C"/>
</g>
<defs>
<clipPath id="clip0_3_6">
<rect width="60" height="50" fill="white"/>
</clipPath>
</defs>
</svg>
