<?xml version="1.0" encoding="UTF-8" standalone="no"?>
<!DOCTYPE svg PUBLIC "-//W3C//DTD SVG 1.1//EN" "http://www.w3.org/Graphics/SVG/1.1/DTD/svg11.dtd">
<svg width="100%" height="100%" viewBox="0 0 60 50" version="1.1" xmlns="http://www.w3.org/2000/svg" xmlns:xlink="http://www.w3.org/1999/xlink" xml:space="preserve" xmlns:serif="http://www.serif.com/" style="fill-rule:evenodd;clip-rule:evenodd;stroke-linejoin:round;stroke-miterlimit:2;">
    <g id="V_Bottom" transform="matrix(0.305931,0,0,0.181696,-58.2375,-34.4274)">
        <path d="M278.556,427.595C284.427,420.336 292.418,420.336 298.289,427.595C298.421,427.757 298.553,427.921 298.686,428.085C302.877,433.267 304.616,442.398 302.997,450.718C301.378,459.038 296.766,464.664 291.566,464.664C289.474,464.664 287.371,464.664 285.279,464.664C280.079,464.664 275.468,459.038 273.848,450.718C272.229,442.398 273.968,433.267 278.159,428.085C278.292,427.921 278.425,427.757 278.556,427.595Z" style="fill:rgb(126,202,156);"/>
    </g>
    <g id="V_Left" transform="matrix(-0.0566294,0.0932777,0.243193,0.183548,30.9256,-5.75366)">
        <path d="M292.116,76.92C317.88,77.122 337.058,84.327 336.503,93.595C336.502,93.599 336.502,93.602 336.502,93.606C336.252,97.769 331.054,101.877 322.205,104.902C313.357,107.927 301.695,109.585 290.134,109.46C228.082,108.789 115.852,107.576 40.176,106.757C23.607,106.578 9.374,103.293 2.624,98.089C-4.126,92.885 -2.418,86.516 7.133,81.285C7.835,80.901 8.516,80.528 9.173,80.168C15.225,76.853 25.588,74.831 36.098,74.913C83.931,75.288 220.365,76.358 292.116,76.92Z" style="fill:rgb(126,202,156);"/>
    </g>
    <g id="V_Left1" serif:id="V_Left" transform="matrix(0.0566294,0.0932777,-0.243193,0.183548,29.0744,-5.75366)">
        <path d="M292.116,76.92C317.88,77.122 337.058,84.327 336.503,93.595C336.502,93.599 336.502,93.602 336.502,93.606C336.252,97.769 331.054,101.877 322.205,104.902C313.357,107.927 301.695,109.585 290.134,109.46C228.082,108.789 115.852,107.576 40.176,106.757C23.607,106.578 9.374,103.293 2.624,98.089C-4.126,92.885 -2.418,86.516 7.133,81.285C7.835,80.901 8.516,80.528 9.173,80.168C15.225,76.853 25.588,74.831 36.098,74.913C83.931,75.288 220.365,76.358 292.116,76.92Z" style="fill:rgb(126,202,156);"/>
    </g>
    <g id="V_Top" transform="matrix(0.181976,-1.31809e-17,1.23953e-16,0.247057,-2.62101,-18.7353)">
        <path d="M311.273,75.834C317.447,75.834 323.368,77.64 327.733,80.856C332.098,84.071 334.551,88.432 334.551,92.98C334.551,92.981 334.551,92.982 334.551,92.983C334.551,97.53 332.098,101.891 327.733,105.106C323.368,108.322 317.447,110.128 311.273,110.128C253.651,110.128 104.87,110.128 47.248,110.128C41.074,110.128 35.153,108.322 30.788,105.106C26.422,101.891 23.97,97.53 23.97,92.983C23.97,92.982 23.97,92.981 23.97,92.98C23.97,88.432 26.422,84.071 30.788,80.856C35.153,77.64 41.074,75.834 47.248,75.834C104.87,75.834 253.651,75.834 311.273,75.834Z" style="fill:rgb(126,202,156);"/>
    </g>
</svg>
