<?xml version="1.0" encoding="UTF-8" standalone="no"?>
<!DOCTYPE svg PUBLIC "-//W3C//DTD SVG 1.1//EN" "http://www.w3.org/Graphics/SVG/1.1/DTD/svg11.dtd">
<svg width="100%" height="100%" viewBox="0 0 512 512" version="1.1" xmlns="http://www.w3.org/2000/svg" xmlns:xlink="http://www.w3.org/1999/xlink" xml:space="preserve" xmlns:serif="http://www.serif.com/" style="fill-rule:evenodd;clip-rule:evenodd;stroke-linejoin:round;stroke-miterlimit:2;">
    <g id="V_Bottom" transform="matrix(1.87289,0,0,1.11233,-284.183,-107.81)">
        <path d="M283.682,421.257C286.503,417.769 290.342,417.769 293.163,421.257C297.047,426.059 302.823,433.2 308.573,440.309C311.364,443.76 312.522,449.839 311.443,455.378C310.365,460.918 307.295,464.664 303.833,464.664C294.048,464.664 282.798,464.664 273.013,464.664C269.55,464.664 266.48,460.918 265.402,455.378C264.324,449.839 265.482,443.76 268.272,440.309C274.023,433.2 279.798,426.059 283.682,421.257Z" style="fill:rgb(126,202,156);"/>
    </g>
    <g id="V_Left" transform="matrix(-0.346681,0.571039,1.48881,1.12367,261.667,67.7284)">
        <path d="M317.216,77.117C328.725,77.207 337.292,80.426 337.044,84.566C336.754,89.405 336.371,95.79 336.062,100.946C335.924,103.239 333.06,105.502 328.186,107.169C323.311,108.836 316.886,109.749 310.517,109.68C246.197,108.985 74.77,107.131 -0.973,106.313C-8.802,106.228 -15.527,104.676 -18.717,102.217C-21.906,99.758 -21.099,96.749 -16.586,94.277C-6.859,88.949 4.068,82.964 11.218,79.048C16.012,76.422 24.221,74.82 32.546,74.885C82.595,75.277 257.388,76.648 317.216,77.117Z" style="fill:rgb(126,202,156);"/>
    </g>
    <g id="V_Left1" serif:id="V_Left" transform="matrix(0.346681,0.571039,-1.48881,1.12367,250.333,67.7284)">
        <path d="M317.216,77.117C328.725,77.207 337.292,80.426 337.044,84.566C336.754,89.405 336.371,95.79 336.062,100.946C335.924,103.239 333.06,105.502 328.186,107.169C323.311,108.836 316.886,109.749 310.517,109.68C246.197,108.985 74.77,107.131 -0.973,106.313C-8.802,106.228 -15.527,104.676 -18.717,102.217C-21.906,99.758 -21.099,96.749 -16.586,94.277C-6.859,88.949 4.068,82.964 11.218,79.048C16.012,76.422 24.221,74.82 32.546,74.885C82.595,75.277 257.388,76.648 317.216,77.117Z" style="fill:rgb(126,202,156);"/>
    </g>
    <g id="V_Top" transform="matrix(1.11404,-8.06924e-17,7.58833e-16,1.51247,56.2966,-11.7445)">
        <path d="M321.069,75.834C328.515,75.834 334.551,80.28 334.551,85.764L334.551,100.196C334.551,102.83 333.13,105.357 330.601,107.219C328.073,109.082 324.643,110.128 321.067,110.128C269.971,110.128 88.583,110.128 37.466,110.128C33.887,110.128 30.454,109.081 27.923,107.217C25.392,105.352 23.97,102.824 23.97,100.187C23.97,95.656 23.97,90.304 23.97,85.773C23.97,80.284 30.011,75.834 37.464,75.834L321.069,75.834Z" style="fill:rgb(126,202,156);"/>
    </g>
</svg>
